<?xml version="1.0" encoding="UTF-8"?>
<svg width="64" height="64" viewBox="0 0 64 64" xmlns="http://www.w3.org/2000/svg" role="img" aria-label="QWERA Icon">
  <defs>
    <clipPath id="rounded">
      <rect x="8" y="12" width="48" height="34" rx="6" ry="6"/>
    </clipPath>
    <filter id="soft" x="-5%" y="-5%" width="110%" height="110%">
      <feDropShadow dx="0" dy="0" stdDeviation="0.4" flood-opacity="0.15"/>
    </filter>
  </defs>

  <!-- background -->
  <rect x="0" y="0" width="64" height="64" fill="#F6F6F6"/>

  <!-- wind lines -->
  <g fill="none" stroke="#1E90FF" stroke-linecap="round" stroke-width="4">
    <path d="M12 16 H44 q6 0 6-6" />
    <path d="M12 24 H52 q6 0 6-6" />
    <path d="M12 32 H36 q6 0 6-6" />
  </g>

  <!-- ground container -->
  <g clip-path="url(#rounded)" filter="url(#soft)">
    <rect x="8" y="12" width="48" height="34" fill="none"/>
    <path d="M8 30 C20 24, 28 36, 40 28 C48 24, 56 30, 56 30 L56 46 L8 46 Z" fill="#6E3E14"/>
    <path d="M8 34 C18 28, 26 38, 40 31 C48 28, 56 34, 56 34 L56 46 L8 46 Z" fill="#B9742B"/>
  </g>

  <!-- magnifier -->
  <g transform="translate(34,32)">
    <circle cx="0" cy="0" r="8.5" fill="#FFFFFF" stroke="#1E90FF" stroke-width="2"/>
    <g transform="translate(-4.5,-4.5)">
      <rect x="0" y="0" width="9" height="9" fill="none"/>
      <rect x="0.5" y="0.5" width="2.5" height="2.5" fill="#6B5B3A"/>
      <rect x="3.25" y="0.5" width="2.5" height="2.5" fill="#6B5B3A"/>
      <rect x="6.0" y="0.5" width="2.5" height="2.5" fill="#6B5B3A"/>
      <rect x="0.5" y="3.25" width="2.5" height="2.5" fill="#6B5B3A"/>
      <rect x="3.25" y="3.25" width="2.5" height="2.5" fill="#6B5B3A"/>
      <rect x="6.0" y="3.25" width="2.5" height="2.5" fill="#6B5B3A"/>
      <rect x="0.5" y="6.0" width="2.5" height="2.5" fill="#6B5B3A"/>
      <rect x="3.25" y="6.0" width="2.5" height="2.5" fill="#6B5B3A"/>
      <rect x="6.0" y="6.0" width="2.5" height="2.5" fill="#6B5B3A"/>
    </g>
    <rect x="8" y="7" width="8" height="2.4" rx="1.2" fill="#1E90FF" transform="rotate(40) translate(0,-1)"/>
  </g>

  <!-- plugin label -->
  <g aria-hidden="true" transform="translate(32,57)" text-anchor="middle" font-family="Inter, Arial, sans-serif" font-size="10" font-weight="700" fill="#1E90FF">
    <text>QWERA</text>
  </g>

  
    <!-- badge -->
    <g>
      <circle cx="52" cy="12" r="8.5" fill="#FFFFFF" stroke="#1E90FF" stroke-width="2"/>
      <text x="52" y="15" text-anchor="middle" font-family="Inter, Arial, sans-serif" font-size="10" font-weight="700" fill="#1E90FF">5</text>
    </g>
    
</svg>
