<?xml version="1.0" encoding="UTF-8" standalone="no"?>
<svg
   width="64"
   height="64"
   viewBox="0 0 64 64"
   role="img"
   aria-label="QWERA Icon"
   version="1.1"
   id="svg18"
   sodipodi:docname="qwera_tool_0.svg"
   inkscape:version="1.3.2 (091e20e, 2023-11-25, custom)"
   xmlns:inkscape="http://www.inkscape.org/namespaces/inkscape"
   xmlns:sodipodi="http://sodipodi.sourceforge.net/DTD/sodipodi-0.dtd"
   xmlns="http://www.w3.org/2000/svg"
   xmlns:svg="http://www.w3.org/2000/svg">
  <sodipodi:namedview
     id="namedview18"
     pagecolor="#ffffff"
     bordercolor="#000000"
     borderopacity="0.25"
     inkscape:showpageshadow="2"
     inkscape:pageopacity="0.0"
     inkscape:pagecheckerboard="0"
     inkscape:deskcolor="#d1d1d1"
     inkscape:zoom="8"
     inkscape:cx="26.6875"
     inkscape:cy="20.5625"
     inkscape:window-width="1920"
     inkscape:window-height="991"
     inkscape:window-x="-9"
     inkscape:window-y="-9"
     inkscape:window-maximized="1"
     inkscape:current-layer="g18" />
  <defs
     id="defs1">
    <clipPath
       id="rounded">
      <rect
         x="8"
         y="12"
         width="48"
         height="34"
         rx="6"
         ry="6"
         id="rect1" />
    </clipPath>
    <filter
       id="soft"
       x="0"
       y="0"
       width="1"
       height="1">
      <feDropShadow
         dx="0"
         dy="0"
         stdDeviation="0.4"
         flood-opacity="0.15" />
    </filter>
  </defs>
  <!-- background -->
  <rect
     x="0"
     y="0"
     width="64"
     height="64"
     fill="#F6F6F6"
     id="rect2" />
  <!-- wind lines -->
  <g
     fill="none"
     stroke="#1E90FF"
     stroke-linecap="round"
     stroke-width="4"
     id="g4">
    <path
       d="M12 16 H44 q6 0 6-6"
       id="path2" />
    <path
       d="M12 24 H52 q6 0 6-6"
       id="path3" />
    <path
       d="M12 32 H36 q6 0 6-6"
       id="path4" />
  </g>
  <!-- ground container -->
  <g
     clip-path="url(#rounded)"
     filter="url(#soft)"
     id="g6">
    <rect
       x="8"
       y="12"
       width="48"
       height="34"
       fill="none"
       id="rect4" />
    <path
       d="M8 30 C20 24, 28 36, 40 28 C48 24, 56 30, 56 30 L56 46 L8 46 Z"
       fill="#6E3E14"
       id="path5" />
    <path
       d="M8 34 C18 28, 26 38, 40 31 C48 28, 56 34, 56 34 L56 46 L8 46 Z"
       fill="#B9742B"
       id="path6" />
  </g>
  <!-- magnifier -->
  <g
     transform="translate(34,32)"
     id="g16">
    <circle
       cx="0"
       cy="0"
       r="8.5"
       fill="#FFFFFF"
       stroke="#1E90FF"
       stroke-width="2"
       id="circle6" />
    <g
       transform="translate(-4.5,-4.5)"
       id="g15">
      <rect
         x="0"
         y="0"
         width="9"
         height="9"
         fill="none"
         id="rect6" />
      <rect
         x="0.5"
         y="0.5"
         width="2.5"
         height="2.5"
         fill="#6B5B3A"
         id="rect7" />
      <rect
         x="3.25"
         y="0.5"
         width="2.5"
         height="2.5"
         fill="#6B5B3A"
         id="rect8" />
      <rect
         x="6.0"
         y="0.5"
         width="2.5"
         height="2.5"
         fill="#6B5B3A"
         id="rect9" />
      <rect
         x="0.5"
         y="3.25"
         width="2.5"
         height="2.5"
         fill="#6B5B3A"
         id="rect10" />
      <rect
         x="3.25"
         y="3.25"
         width="2.5"
         height="2.5"
         fill="#6B5B3A"
         id="rect11" />
      <rect
         x="6.0"
         y="3.25"
         width="2.5"
         height="2.5"
         fill="#6B5B3A"
         id="rect12" />
      <rect
         x="0.5"
         y="6.0"
         width="2.5"
         height="2.5"
         fill="#6B5B3A"
         id="rect13" />
      <rect
         x="3.25"
         y="6.0"
         width="2.5"
         height="2.5"
         fill="#6B5B3A"
         id="rect14" />
      <rect
         x="6.0"
         y="6.0"
         width="2.5"
         height="2.5"
         fill="#6B5B3A"
         id="rect15" />
    </g>
    <rect
       x="8"
       y="7"
       width="8"
       height="2.4"
       rx="1.2"
       fill="#1E90FF"
       transform="rotate(40) translate(0,-1)"
       id="rect16" />
  </g>
  <!-- plugin label -->
  <g
     aria-hidden="true"
     transform="translate(32,57)"
     text-anchor="middle"
     font-family="Inter, Arial, sans-serif"
     font-size="10"
     font-weight="700"
     fill="#1E90FF"
     id="g17">
    <text
       id="text16">QWERA</text>
  </g>
  <!-- badge -->
  <g
     id="g18">
    <circle
       cx="52"
       cy="12"
       r="8.5"
       fill="#FFFFFF"
       stroke="#1E90FF"
       stroke-width="2"
       id="circle17" />
    <text
       x="52"
       y="15"
       text-anchor="middle"
       font-family="Inter, Arial, sans-serif"
       font-size="10px"
       font-weight="700"
       fill="#1e90ff"
       id="text17">0</text>
  </g>
</svg>
