<?xml version="1.0" encoding="UTF-8" standalone="no"?>
<!-- Created with Inkscape (http://www.inkscape.org/) -->

<svg
   version="1.1"
   id="svg1"
   width="1024"
   height="1024"
   viewBox="0 0 1024 1024"
   sodipodi:docname="QWERA_ICON_03.svg"
   inkscape:version="1.4.2 (f4327f4, 2025-05-13)"
   xmlns:inkscape="http://www.inkscape.org/namespaces/inkscape"
   xmlns:sodipodi="http://sodipodi.sourceforge.net/DTD/sodipodi-0.dtd"
   xmlns="http://www.w3.org/2000/svg"
   xmlns:svg="http://www.w3.org/2000/svg">
  <defs
     id="defs1" />
  <sodipodi:namedview
     id="namedview1"
     pagecolor="#ffffff"
     bordercolor="#000000"
     borderopacity="0.25"
     inkscape:showpageshadow="2"
     inkscape:pageopacity="0.0"
     inkscape:pagecheckerboard="0"
     inkscape:deskcolor="#d1d1d1"
     showgrid="false"
     inkscape:zoom="0.78808594"
     inkscape:cx="305.16976"
     inkscape:cy="575.44486"
     inkscape:window-width="1920"
     inkscape:window-height="1009"
     inkscape:window-x="1912"
     inkscape:window-y="-8"
     inkscape:window-maximized="1"
     inkscape:current-layer="g1" />
  <g
     inkscape:groupmode="layer"
     inkscape:label="Image"
     id="g1"
     style="display:inline">
    <g
       id="g246"
       style="display:inline">
      <path
         style="display:inline;fill:#edebe7"
         d="M 0,512.12155 V 0.12155725 h 512 512 V 512.12155 1024.1215 H 512 0 Z"
         id="path262" />
      <path
         style="display:inline;fill:#a56011"
         d="m 209.5,748.98341 c -16.03896,-3.19761 -30.54234,-13.74837 -37.31664,-27.1467 -6.34211,-12.54356 -6.14689,-8.01879 -6.166,-142.9124 L 166,456.34863 l 2.25,-2.04059 c 1.2375,-1.12232 7.01229,-5.21037 12.83287,-9.08455 47.92034,-31.89578 93.44128,-46.66705 138.41713,-44.9155 34.90106,1.35919 61.10136,9.47178 118.5,36.69201 42.94496,20.36584 58.32238,25.86228 82.5,29.48842 12.5611,1.8839 21.41315,1.89586 33.5,0.0452 23.32691,-3.57155 37.0403,-8.78997 80.49167,-30.62981 37.63313,-18.91545 54.65346,-26.53638 72.00833,-32.24208 45.93587,-15.10218 87.04086,-12.60432 129,7.83903 7.15,3.48363 15.1375,7.71115 17.75,9.3945 l 4.75,3.06064 -0.0174,138.27203 c -0.0192,153.16056 0.28916,145.67625 -6.57768,159.63002 -6.79909,13.81612 -20.71286,24.32417 -35.83862,27.0663 -7.06184,1.28023 -599.6514,1.33802 -606.06634,0.0591 z m 599.67052,-22.62053 c 10.51024,-3.30983 19.54167,-15.90822 20.56774,-28.69098 0.89868,-11.19563 -1.07759,-14.13582 -27.36571,-40.71332 l -22.69291,-22.94271 5.20697,-10.96531 c 7.25637,-15.28114 10.15645,-27.13248 10.84359,-44.31302 0.65777,-16.44616 -0.77754,-28.60012 -4.8533,-41.09688 -7.90423,-24.23535 -23.57539,-44.61575 -45.67092,-59.39521 C 724.79742,464.59439 706.55261,459 682.44137,459 c -26.13224,0 -45.89491,5.80631 -66.40905,19.5111 -16.49919,11.02255 -29.36187,26.00549 -38.57797,44.93713 -9.34877,19.20415 -13.33642,38.77375 -11.92752,58.53493 1.23048,17.2586 4.52643,29.34515 12.13956,44.51684 5.90668,11.77101 12.03015,20.26756 21.32719,29.59227 23.69475,23.76526 48.7891,34.1743 82.50642,34.22335 18.70569,0.0272 30.31731,-2.38492 50.23673,-10.43587 l 3.23673,-1.30821 22.26327,22.04942 c 23.00064,22.77971 27.22054,25.97568 36.26327,27.46429 4.74995,0.78193 9.3096,0.28078 15.67052,-1.72237 z"
         id="path248"
         sodipodi:nodetypes="ssscsssssssssscsssssssscsssssssssssscsss" />
      <path
         style="display:inline;fill:#653502"
         d="m 553,587.32375 c -8.76693,-1.0048 -26.22451,-4.48317 -33.5,-6.67478 -19.64695,-5.91827 -35.07591,-12.95891 -66.5,-30.34567 -35.60952,-19.70254 -39.41595,-21.68479 -54.12827,-28.18796 -36.83594,-16.28231 -69.40629,-23.67109 -109.39412,-24.81672 -28.32491,-0.8115 -49.68958,1.64358 -76.44918,8.785 -11.96172,3.19226 -32.17613,10.49214 -40.15664,14.50147 -2.54551,1.27884 -4.90801,2.04536 -5.25,1.70337 C 167.27981,521.94647 167,506.93085 167,488.9204 v -32.74627 l 11.75,-7.93435 c 39.82183,-26.89026 75.45695,-41.38561 112.27231,-45.66919 44.60199,-5.18957 76.87625,2.55986 145.3887,34.90954 40.64369,19.19083 54.12674,24.34351 74.70938,28.55094 21.01165,4.29512 38.72931,3.69874 60.4357,-2.03428 16.33622,-4.31467 28.94228,-9.75756 69.94391,-30.1995 63.07333,-31.44609 84.72789,-38.25254 121.5,-38.18981 18.67129,0.0318 28.81226,1.37443 44.31483,5.8669 14.50196,4.2025 37.74969,14.83258 46.43517,21.2326 l 3.25,2.3948 v 67.78244 c 0,37.28035 -0.2616,68.04405 -0.58133,68.36378 -0.31974,0.31974 -2.23224,-0.54882 -4.25,-1.93013 -11.57758,-7.92568 -35.26578,-17.2622 -49.18517,-19.38595 -4.11593,-0.62799 -8.15342,-1.47791 -8.97221,-1.88872 -0.8188,-0.41082 -3.10175,-4.52609 -5.07323,-9.14507 -14.05569,-32.93105 -43.38557,-58.31035 -78.76263,-68.15372 -6.73106,-1.87286 -10.25923,-2.13346 -28.67543,-2.11805 -19.45678,0.0163 -21.71325,0.20932 -30.70581,2.6268 -35.84255,9.63558 -65.0058,36.01893 -78.72518,71.22091 -5.58804,14.33812 -7.32606,23.55431 -7.64251,40.52593 l -0.27036,14.5 -3.82807,0.11245 c -2.10544,0.0619 -5.40307,-0.0681 -7.32807,-0.2887 z"
         id="path247"
         sodipodi:nodetypes="ssssssssscssssssssscssssssssssscss" />
      <path
         d="m 639.39037,620.23231 c -0.89785,-0.36229 -1.25,-3.72994 -1.25,-11.9538 v -11.44942 l 11.25,0.28275 11.25,0.28275 0.28613,10.354 c 0.18726,6.7762 -0.11421,10.83639 -0.87244,11.75 -0.84644,1.01989 -3.61773,1.37473 -10.28613,1.31705 -5.02016,-0.0434 -9.69006,-0.30592 -10.37756,-0.58333 z m 30.96445,-0.18402 c -0.94922,-0.60228 -1.21084,-3.67224 -1,-11.73469 l 0.28555,-10.91901 h 11 11 l 0.28555,10.91901 c 0.21084,8.06245 -0.0508,11.13241 -1,11.73469 -0.70705,0.44862 -5.33555,0.81567 -10.28555,0.81567 -4.95,0 -9.5785,-0.36705 -10.28555,-0.81567 z m 30.87186,-0.5497 c -0.75823,-0.91361 -1.0597,-4.9738 -0.87244,-11.75 l 0.28613,-10.354 h 11.5 11.5 l 0.28613,10.354 c 0.18726,6.7762 -0.11421,10.83639 -0.87244,11.75 -0.8466,1.02009 -3.78543,1.396 -10.91369,1.396 -7.12826,0 -10.06709,-0.37591 -10.91369,-1.396 z m -62.38783,-31.23885 c -0.38416,-0.38417 -0.69848,-5.81322 -0.69848,-12.06457 v -11.36608 l 11.25,0.28275 11.25,0.28275 v 11.5 11.5 l -10.55152,0.28182 c -5.80333,0.155 -10.86583,-0.0325 -11.25,-0.41667 z m 30.74619,-0.64874 c -0.28526,-0.74339 -0.38952,-6.0462 -0.23167,-11.78401 l 0.287,-10.4324 h 11 11 v 11.5 11.5 l -10.76833,0.28402 c -8.32511,0.21957 -10.88601,-0.0226 -11.287,-1.06761 z m 31.03121,-0.96641 c -0.30923,-1.2375 -0.4303,-6.525 -0.26905,-11.75 l 0.29317,-9.5 10.91901,-0.28555 c 8.06245,-0.21084 11.13241,0.0508 11.73469,1 1.31711,2.07583 1.01993,20.21192 -0.3537,21.58555 -0.77771,0.77771 -4.81799,1.2 -11.48095,1.2 -9.82847,0 -10.30569,-0.099 -10.84317,-2.25 z M 638.58504,555.611 c -0.28526,-0.74339 -0.38952,-6.0462 -0.23167,-11.78401 l 0.287,-10.4324 h 11 11 v 11.5 11.5 l -10.76833,0.28402 c -8.32511,0.21957 -10.88601,-0.0226 -11.287,-1.06761 z m 31,0 c -0.28526,-0.74339 -0.38952,-6.0462 -0.23167,-11.78401 l 0.287,-10.4324 h 11 11 v 11.5 11.5 l -10.76833,0.28402 c -8.32511,0.21957 -10.88601,-0.0226 -11.287,-1.06761 z m 30.98695,-0.034 c -0.27809,-0.72469 -0.37647,-6.01219 -0.21862,-11.75 l 0.287,-10.43241 10.354,-0.28613 c 6.7762,-0.18726 10.83639,0.11421 11.75,0.87244 1.01146,0.83944 1.396,3.71918 1.396,10.45435 0,5.11267 -0.27314,10.00757 -0.60699,10.87755 -0.50224,1.30881 -2.49225,1.58179 -11.53138,1.58179 -8.11597,0 -11.05438,-0.33873 -11.43001,-1.3176 z"
         style="display:none;fill:#a56011"
         id="path1" />
      <path
         d="m 577.32944,408.59611 c -13.1707,-2.96177 -28.06223,-12.85307 -34.90605,-23.18535 -5.56048,-8.39481 -3.72472,-16.90694 4.06291,-18.83903 3.17805,-0.78847 5.82579,0.49151 11.75107,5.68072 15.90437,13.92869 40.02177,14.90587 54.12067,2.19285 6.4739,-5.83754 9.972,-14.04217 9.9608,-23.36267 -0.011,-9.24159 -2.7304,-15.74635 -8.9128,-21.31997 -9.3189,-8.40119 -16.7286,-9.74386 -47.5766,-8.62114 -12.65,0.4604 -85.55,0.86494 -162,0.89899 -153.86613,0.0685 -161.17326,0.29485 -198.39134,6.14503 -6.81524,1.07126 -12.66524,1.67101 -13,1.33278 -1.2412,-1.25405 5.80246,-5.71755 20.39134,-12.92178 23.50532,-11.60732 45.50034,-18.34684 72.53503,-22.22554 11.53026,-1.65427 23.67554,-1.78837 161.96497,-1.78837 168.1145,0 156.461,-0.50677 173.8022,7.55808 19.116,8.89029 31.3897,28.92489 31.5144,51.44192 0.089,16.06316 -4.824,27.97521 -16.3166,39.56056 -8.1205,8.18608 -17.1114,13.3614 -28.5,16.40516 -8.7106,2.32804 -22.6737,2.80771 -30.5,1.04776 z M 183.54992,261.83263 c 0.59659,-1.92625 29.11455,-15.86706 39.80138,-19.45663 11.48389,-3.85731 26.12515,-7.60457 38.97814,-9.97602 8.80278,-1.62416 25.35247,-1.79308 225.5,-2.30158 202.6413,-0.51483 216.3665,-0.65801 221.9251,-2.31518 8.3641,-2.49349 14.9968,-6.34979 19.7029,-11.45527 9.5099,-10.31701 12.0693,-24.19006 6.5456,-35.48005 -6.9713,-14.24874 -24.9028,-24.189 -40.3583,-22.3725 -8.687,1.02098 -15.4427,4.17796 -23.7887,11.11668 -9.1028,7.56793 -11.984,8.18699 -16.6035,3.56747 -10.4658,-10.46577 8.8778,-32.06644 34.537,-38.56698 7.7826,-1.97164 25.314,-1.96894 33.0798,0.005 28.4589,7.23413 47.8745,33.83919 46.2064,63.31614 -1.4125,24.95996 -18.0332,47.12671 -41.4259,55.24905 -16.3074,5.6622 2.8346,5.23343 -265.8204,5.95423 -218.34228,0.58581 -248.62432,0.85054 -261,2.28166 -17.12033,1.97979 -17.76331,1.99594 -17.27952,0.43389 z m 33.77952,-67.7181 c 0,-1.37041 11.10011,-6.8385 25,-12.3154 22.23296,-8.76034 43.5095,-13.22995 69.72073,-14.64639 9.7786,-0.52843 67.52634,-0.98899 128.32832,-1.02347 108.51707,-0.0615 110.68595,-0.10062 117.99675,-2.12655 14.6272,-4.05339 24.1311,-11.4402 29.9645,-23.28938 3.0024,-6.09878 3.3718,-7.74933 3.3555,-14.992 -0.025,-11.15644 -2.7017,-17.78665 -10.5809,-26.209543 -10.4533,-11.174517 -23.83836,-16.147103 -40.7849,-15.151629 -10.56808,0.62079 -17.94616,3.3174 -26.08795,9.534867 -11.58292,8.845295 -14.18189,9.479085 -18.66205,4.551012 -7.19079,-7.909704 4.0038,-24.760866 22.25,-33.492824 12.43602,-5.95142 18.92046,-7.320173 34.5,-7.282355 12.6488,0.0307 14.1231,0.244599 23.3824,3.392452 18.7472,6.37342 31.9626,17.729109 40.1726,34.519307 13.2739,27.146613 8.2777,55.865333 -13.4874,77.526773 -9.7438,9.69735 -19.6607,15.51453 -32.7474,19.20933 l -7.8202,2.2079 -172.25,0.29732 c -115.13369,0.19874 -172.25,-0.0365 -172.25,-0.70942 z"
         style="display:inline;fill:#2e9399"
         id="path1-5" />
      <path
         d="m 277.91338,951.39484 c -0.88236,-0.6875 -4.4057,-4.85 -7.82963,-9.25 -3.42393,-4.4 -6.53296,-8.34746 -6.90896,-8.77213 -0.376,-0.42468 -3.80117,0.41756 -7.61149,1.87164 -9.10676,3.47527 -26.13325,4.39252 -37.42787,2.0163 -32.57131,-6.85251 -51.80371,-36.28159 -49.6918,-76.03752 2.25074,-42.3692 29.46376,-67.85684 69.64772,-65.23186 5.24925,0.3429 12.21575,1.34124 15.48113,2.21854 22.97413,6.17237 38.85292,24.2905 44.1082,50.32865 2.41162,11.94874 1.62946,34.74021 -1.53081,44.60638 -2.86403,8.94134 -6.36092,15.90325 -10.63259,21.1683 -1.86002,2.29256 -3.38185,4.65641 -3.38185,5.253 0,0.59659 3.15,4.93827 7,9.64818 3.85,4.70991 7,9.37118 7,10.35838 0,1.71741 -13.61179,13.07214 -15.67059,13.07214 -0.52093,0 -1.66909,-0.5625 -2.55146,-1.25 z m -36.40569,-37.69612 c 2.12975,-0.49412 4.32053,-1.34667 4.86841,-1.89455 0.66153,-0.66153 -1.04703,-4.05074 -5.08634,-10.08957 -3.43727,-5.13878 -5.83929,-9.72717 -5.52327,-10.5507 0.72751,-1.89587 14.37693,-10.63216 15.51376,-9.92956 0.47902,0.29606 3.40361,3.96294 6.49907,8.14863 5.25038,7.09957 5.72104,7.48328 7.01257,5.71701 5.24432,-7.17203 6.22433,-36.0326 1.69632,-49.95514 -3.50158,-10.7665 -10.2469,-18.76501 -19.23038,-22.80314 -6.81436,-3.0631 -20.74945,-2.99878 -27.6224,0.1275 -13.65872,6.21291 -20.21468,19.27031 -21.17587,42.17564 -0.63325,15.09041 1.01393,24.28909 5.97293,33.35582 7.00692,12.81104 22.05553,19.18279 37.0752,15.69806 z m 104.98007,21.95281 c -1.18122,-0.47659 -2.44187,-1.34255 -2.80144,-1.92435 -1.15459,-1.86817 -35.55089,-130.08551 -35.55089,-132.52126 0,-1.29091 0.7118,-2.62025 1.58179,-2.95409 3.16402,-1.21415 23.96843,-0.65636 25.81251,0.69206 1.23389,0.90224 3.1213,6.93508 6.1789,19.75 5.83996,24.47621 16.41266,68.0014 17.0525,70.20095 0.27999,0.9625 0.87231,1.75 1.31626,1.75 0.8795,0 5.74899,-16.90475 17.57131,-61 5.6266,-20.98627 8.17723,-28.96137 9.6747,-30.25 1.66481,-1.43264 3.98823,-1.75 12.81203,-1.75 8.80607,0 11.15908,0.32024 12.85859,1.75 1.56708,1.31836 5.03471,12.12124 14.05886,43.79833 6.58828,23.12658 12.50096,43.37658 13.13928,45 1.0789,2.74395 1.22373,2.81092 2.058,0.95167 0.49359,-1.1 5.56616,-21.49896 11.27238,-45.33103 5.70622,-23.83206 10.89984,-43.85706 11.54139,-44.5 1.25865,-1.26139 21.54532,-2.26883 25.53302,-1.26798 1.27483,0.31996 2.56694,1.2308 2.87136,2.02409 0.30441,0.79329 -1.18529,7.65967 -3.31046,15.25863 -3.86994,13.83779 -9.3753,33.87967 -24.03398,87.49408 -4.31243,15.77278 -8.32517,29.58289 -8.91721,30.68912 -0.72624,1.35698 -2.55862,2.23359 -5.6324,2.69453 -5.93061,0.88935 -21.19957,0.0778 -22.47175,-1.19436 -0.54403,-0.54403 -6.86101,-20.53668 -14.03773,-44.42811 -7.17671,-23.89143 -13.45021,-43.84493 -13.94109,-44.3411 -1.32375,-1.338 -2.03664,0.72848 -13.0755,37.90213 -5.55304,18.7 -11.20688,37.711 -12.56409,42.24666 -1.5681,5.24042 -3.15109,8.61241 -4.34242,9.25 -2.27205,1.21596 -21.64553,1.22385 -24.65392,0.01 z m 167.39767,-0.0868 c -1.63931,-0.95481 -1.75,-5.28734 -1.75,-68.49434 v -67.47506 l 2.5651,-0.97525 c 1.50896,-0.57371 18.77239,-0.97525 41.92857,-0.97525 34.45164,0 39.55956,0.19609 40.9349,1.57143 2.09732,2.09731 2.29674,21.58172 0.23838,23.29001 -0.88603,0.73534 -10.69463,1.19557 -29.25,1.37245 l -27.91695,0.26611 v 14.5 14.5 l 24.66872,0.5 c 13.5678,0.275 25.00468,0.83688 25.4153,1.24863 1.18849,1.19176 1.7153,15.90277 0.70731,19.75137 l -0.91669,3.5 -24.93732,0.5 -24.93732,0.5 -0.28751,14 c -0.15814,7.7 -0.0371,15.0125 0.26905,16.25 l 0.55656,2.25 h 29.28095 c 21.44074,0 29.60226,0.32131 30.48095,1.2 0.77492,0.77492 1.2,4.77778 1.2,11.3 0,6.52222 -0.42508,10.52508 -1.2,11.3 -1.56112,1.56112 -84.37972,1.6752 -87.05,0.1199 z m 111.25,0.10153 c -1.30429,-0.82426 -1.53533,-9.62629 -1.77079,-67.46389 l -0.2708,-66.51595 2.11644,-2.11644 c 2.08272,-2.08272 2.60497,-2.10966 32.7708,-1.69096 27.98016,0.38837 31.22549,0.61284 37.2013,2.57311 12.46259,4.08816 21.5268,12.40276 26.06603,23.91039 3.31617,8.40696 3.36082,26.2675 0.0861,34.4294 -2.9007,7.22964 -8.71148,13.80445 -16.24473,18.38066 -3.27488,1.98938 -5.95432,3.81409 -5.95432,4.05491 0,0.24082 5.80868,10.89574 12.90817,23.6776 7.0995,12.78186 13.49419,24.52654 14.21043,26.09929 2.14149,4.70237 -0.29577,5.64045 -14.65474,5.64045 -10.39271,0 -12.3878,-0.25847 -13.76815,-1.78374 -0.88784,-0.98106 -7.21701,-12.34356 -14.06481,-25.25 l -12.45057,-23.46626 h -9.34018 -9.34018 l -0.2685,23.91983 c -0.17506,15.59552 -0.65268,24.38274 -1.37244,25.25 -1.31508,1.58457 -23.43218,1.88529 -25.85906,0.3516 z m 53.91422,-74.09644 c 9.96066,-2.13618 14.89475,-7.72675 15.81943,-17.92419 0.95444,-10.52576 -3.78005,-18.47303 -12.52872,-21.03061 -2.10212,-0.61453 -9.32891,-0.95052 -16.70493,-0.77664 l -13,0.30646 -0.27287,18.96921 c -0.15008,10.43306 -0.0517,19.54556 0.21861,20.25 0.62365,1.6252 19.17734,1.76944 26.46848,0.20577 z m 59.72748,73.57387 c -1.33487,-1.33488 -1.18793,-2.35949 1.32657,-9.25 1.55525,-4.26187 7.84694,-22.14885 13.98153,-39.74885 21.77109,-62.46074 29.14512,-82.99592 30.6012,-85.21818 2.028,-3.09514 4.4344,-3.50452 18.326,-3.11763 9.1428,0.25464 12.4257,0.70505 13.5819,1.8634 0.8387,0.84017 5.6018,13.21517 10.5848,27.5 4.9829,14.28482 15.3366,43.75131 23.0081,65.48107 7.6715,21.72977 13.9482,40.05143 13.9482,40.71482 0,2.40465 -4.088,3.27652 -15.3628,3.27652 -8.5313,0 -11.856,-0.36171 -12.8975,-1.40317 -0.7717,-0.77174 -3.332,-6.95924 -5.6895,-13.75 -2.3574,-6.79076 -4.7449,-12.91733 -5.3054,-13.6146 -0.7822,-0.97294 -6.4784,-1.2055 -24.4929,-1 l -23.47376,0.26777 -4.90332,13.94979 c -2.69683,7.67239 -5.45941,14.303 -6.13907,14.73469 -0.67966,0.43169 -6.71611,0.79179 -13.41432,0.80021 -9.51148,0.012 -12.50732,-0.31344 -13.67973,-1.48584 z m 77.7711,-53.35778 c 0.6339,-1.02557 -13.8942,-47.02247 -15.2941,-48.4224 -0.9281,-0.92812 -14.1919,37.8243 -15.703,45.87883 l -0.6383,3.4025 h 15.5523 c 8.5537,0 15.7912,-0.38652 16.0831,-0.85893 z"
         style="display:inline;fill:#2e9399"
         id="path1-52" />
      <path
         d="M 791.87587,711.61845 C 790.4326,710.86537 776.90649,697.7478 761.81786,682.4683 l -27.43389,-27.78091 -6.44199,3.56877 c -89.40809,49.53081 -183.27087,-58.59483 -122.21759,-140.78908 70.52685,-94.94824 211.72604,0.54021 156.10766,105.57056 l -5.20201,9.82353 20.109,20.81941 C 787.79899,665.13126 800.06555,677.65 803.99806,681.5 812.24121,689.5702 814,692.42169 814,697.71594 c 0,10.66407 -12.85241,18.74035 -22.12413,13.90251 z M 700.5,646.48208 c 49.93895,-13.08843 69.03886,-76.74032 35.47461,-118.22182 -36.17746,-44.71113 -105.01038,-31.70553 -124.26152,23.47853 -18.89002,54.1489 32.88292,109.39509 88.78691,94.74329 z"
         style="display:inline;fill:#2e9399"
         id="path1-2" />
    </g>
    <text
       xml:space="preserve"
       style="font-style:normal;font-variant:normal;font-weight:normal;font-stretch:normal;font-size:12px;font-family:'Berlin Sans FB';-inkscape-font-specification:'Berlin Sans FB, Normal';font-variant-ligatures:normal;font-variant-caps:normal;font-variant-numeric:normal;font-variant-east-asian:normal;text-align:start;writing-mode:lr-tb;direction:ltr;text-anchor:start;white-space:pre;inline-size:20.5839;fill:#a56011;fill-opacity:1"
       x="-100.24287"
       y="427.61835"
       id="text1"
       transform="matrix(14.207747,0,0,15.311357,2066.9788,-5918.8545)"><tspan
         x="-100.24287"
         y="427.61835"
         id="tspan1">3</tspan></text>
  </g>
</svg>
